<?xml version="1.0" standalone="no"?>
<!DOCTYPE svg PUBLIC "-//W3C//DTD SVG 20010904//EN"
 "http://www.w3.org/TR/2001/REC-SVG-20010904/DTD/svg10.dtd">
<svg version="1.0" xmlns="http://www.w3.org/2000/svg"
 width="1254.000000pt" height="1254.000000pt" viewBox="0 0 1254.000000 1254.000000"
 preserveAspectRatio="xMidYMid meet">
<metadata>
Created by potrace 1.16, written by Peter Selinger 2001-2019
</metadata>
<g transform="translate(0.000000,1254.000000) scale(0.100000,-0.100000)"
fill="#34d399" stroke="none">
<path d="M6070 11103 c-755 -38 -1458 -238 -2100 -595 -715 -399 -1352 -1019
-1775 -1729 -455 -763 -704 -1662 -705 -2546 -1 -1106 378 -2180 1075 -3048
437 -545 937 -949 1570 -1270 573 -291 1173 -458 1815 -506 195 -15 654 -6
845 16 786 89 1527 364 2165 803 521 358 968 824 1318 1372 410 643 651 1345
744 2170 17 153 17 755 0 910 -133 1194 -600 2211 -1387 3019 -332 341 -657
589 -1081 826 -740 414 -1633 622 -2484 578z m618 -78 c376 -32 705 -100 1067
-219 1074 -356 1982 -1107 2569 -2125 294 -509 507 -1120 595 -1703 47 -312
55 -422 55 -753 -1 -423 -27 -679 -110 -1050 -133 -594 -368 -1145 -695 -1632
-627 -934 -1544 -1605 -2601 -1902 -1115 -314 -2290 -212 -3323 289 -525 254
-960 567 -1345 967 -1215 1263 -1645 3055 -1138 4738 198 660 496 1209 947
1750 107 128 436 454 571 566 322 267 613 455 966 625 552 267 1108 412 1754
457 135 10 535 5 688 -8z"/>
<path d="M8340 10067 c-14 -8 -54 -32 -90 -54 -36 -22 -76 -45 -90 -52 -24
-12 -24 -12 -5 4 20 17 19 17 -5 10 -22 -6 -47 -24 -85 -59 -5 -5 8 1 30 13
91 52 -13 -20 -166 -113 -127 -78 -159 -102 -168 -126 -5 -17 -7 -38 -4 -48 4
-9 56 -89 116 -177 61 -88 157 -230 215 -315 126 -187 127 -187 163 -195 36
-8 51 -1 279 140 96 59 212 130 258 157 45 28 91 62 102 76 25 31 26 82 1 113
-10 13 -77 107 -148 209 -71 102 -161 230 -200 285 -94 135 -141 165 -203 132z
m44 -120 c15 -19 26 -40 26 -48 0 -15 -271 -190 -304 -196 -26 -5 -74 63 -60
84 10 14 292 193 305 193 4 0 19 -15 33 -33z m130 -308 c37 -55 66 -105 64
-109 -4 -12 -188 -130 -202 -130 -17 0 -148 202 -138 212 12 12 196 128 203
128 3 0 36 -45 73 -101z m259 -248 c17 -29 17 -30 -5 -46 -85 -59 -278 -175
-292 -175 -14 0 -56 62 -56 83 0 7 12 19 28 28 15 9 83 50 152 92 137 82 135
82 173 18z"/>
<path d="M7879 9810 l-24 -21 33 16 c31 15 41 25 23 25 -5 0 -19 -9 -32 -20z"/>
<path d="M7595 9680 c-17 -7 -16 -9 10 -10 24 -1 18 -5 -25 -15 -74 -18 -152
-28 -125 -16 15 8 9 10 -28 10 -40 1 -204 -33 -337 -69 -19 -5 -51 -12 -70
-15 -61 -10 -272 -66 -267 -72 2 -2 36 3 76 12 40 8 80 15 89 14 9 0 -64 -18
-163 -40 -99 -21 -245 -54 -325 -73 -80 -19 -180 -41 -222 -51 -43 -9 -78 -20
-78 -24 0 -4 101 -57 225 -116 124 -60 223 -110 221 -112 -2 -2 -29 8 -61 22
-69 30 -65 30 -65 5 0 -11 5 -20 10 -20 17 0 11 -26 -10 -45 -22 -20 -24 -66
-3 -58 30 12 9 -8 -29 -28 -33 -17 -40 -18 -29 -5 12 14 11 16 -7 16 -12 0
-31 -5 -44 -11 -28 -13 -78 -72 -54 -63 42 16 6 -9 -86 -62 -123 -69 -467
-278 -591 -358 -48 -31 -93 -54 -99 -50 -6 4 -8 3 -5 -3 4 -6 -31 -34 -76 -63
-45 -30 -145 -99 -222 -153 -77 -55 -145 -100 -152 -100 -7 0 -10 -4 -8 -8 7
-10 -22 -32 -33 -25 -6 3 -16 -2 -23 -12 -13 -16 -12 -16 6 -2 20 15 20 14 1
-8 -20 -23 -42 -31 -30 -9 5 8 3 8 -9 -2 -9 -7 -15 -17 -12 -21 7 -11 -22 -33
-33 -26 -6 3 -15 -1 -22 -9 -7 -8 -9 -15 -4 -15 5 -1 -2 -9 -15 -20 -12 -11
-28 -17 -34 -13 -5 3 -7 1 -4 -5 7 -9 -75 -86 -98 -92 -19 -5 -56 -33 -50 -38
3 -3 17 5 33 18 15 14 -15 -18 -67 -70 -52 -52 -100 -94 -105 -92 -6 2 -8 0
-4 -4 9 -8 -71 -99 -87 -99 -5 0 -10 -4 -10 -10 -1 -20 -26 -55 -36 -50 -5 4
-8 2 -7 -3 2 -5 -22 -45 -54 -88 -117 -163 -222 -353 -283 -511 -15 -40 -31
-71 -34 -69 -3 2 -6 -8 -7 -22 -1 -15 -16 -85 -33 -157 -29 -116 -33 -151 -38
-316 -8 -267 22 -431 123 -671 176 -418 585 -832 1164 -1178 155 -93 159 -95
111 -53 -131 113 -268 243 -334 316 -576 634 -677 1336 -287 1983 98 161 261
347 431 490 74 62 98 77 83 52 -4 -7 -3 -8 5 -4 6 4 9 11 6 16 -9 14 131 111
151 104 14 -4 15 -3 6 4 -30 21 423 294 916 552 367 191 971 485 980 475 3 -3
0 -5 -7 -5 -7 0 -10 -4 -6 -9 7 -13 76 -2 94 15 11 10 11 16 3 27 -9 10 2 20
55 46 36 17 67 30 70 27 3 -2 8 -131 13 -286 5 -155 10 -284 13 -286 5 -6 628
865 634 886 2 9 -6 31 -19 50 -210 309 -272 400 -365 540 -133 200 -132 199
-110 181 15 -12 17 -11 17 5 0 25 -10 38 -37 53 -25 13 -40 13 -68 1z m-580
-146 c-27 -7 -57 -13 -65 -13 -21 1 70 27 95 27 11 0 -2 -6 -30 -14z m-482
-439 c3 -6 -4 -12 -14 -12 -10 -1 -19 4 -19 11 0 16 28 17 33 1z m56 -19 c-10
-9 -69 -36 -69 -32 0 7 52 35 64 36 5 0 7 -2 5 -4z"/>
<path d="M6638 9479 c-7 -4 -39 -12 -71 -19 -32 -6 -56 -14 -54 -17 5 -5 209
36 217 44 7 7 -78 0 -92 -8z"/>
<path d="M6218 8889 c-21 -11 -38 -22 -38 -24 0 -3 18 4 40 15 22 11 40 23 40
25 0 7 0 7 -42 -16z"/>
<path d="M7493 8522 c-8 -5 -8 -12 3 -26 13 -19 14 -19 14 7 0 30 0 30 -17 19z"/>
<path d="M7099 7823 c399 -340 615 -625 791 -1038 69 -162 132 -448 129 -587
0 -28 -2 -30 -11 -16 -20 28 -37 -23 -44 -126 -3 -50 -7 -101 -9 -113 -2 -13
0 -25 5 -28 5 -3 14 21 20 52 16 76 18 83 19 53 1 -31 -35 -175 -49 -198 -8
-13 -9 -10 -5 13 5 26 2 24 -18 -15 -13 -25 -36 -65 -50 -90 -22 -38 -29 -61
-36 -111 -1 -3 -12 -19 -25 -34 -25 -29 -44 -64 -68 -122 -7 -18 -16 -33 -20
-33 -5 0 -8 -6 -8 -14 0 -8 -18 -30 -40 -49 -23 -19 -43 -44 -45 -57 -4 -19
-2 -20 11 -9 9 7 45 55 81 106 35 51 67 93 69 93 15 0 -153 -225 -207 -275
-23 -22 -39 -34 -35 -27 11 20 -18 14 -42 -8 -24 -23 -29 -50 -10 -50 7 0 -12
-21 -41 -47 -113 -99 -216 -183 -226 -183 -5 0 4 11 20 25 39 32 28 32 -15 0
-19 -14 -28 -25 -21 -25 23 0 1 -19 -127 -108 -215 -151 -596 -379 -932 -559
-325 -174 -995 -492 -1008 -478 -3 3 -1 5 4 5 6 0 19 7 30 15 18 14 18 14 -6
15 -15 0 -41 -13 -60 -30 l-35 -30 30 11 c46 16 17 -5 -46 -33 l-56 -25 -12
286 c-7 157 -15 288 -17 290 -5 5 16 35 -186 -264 -96 -143 -225 -332 -286
-420 -62 -88 -112 -169 -112 -181 0 -11 58 -108 128 -215 70 -107 184 -281
252 -386 105 -164 127 -193 148 -193 35 0 682 109 1102 186 195 36 370 68 388
71 17 3 32 9 32 13 0 3 -113 61 -250 127 l-251 121 78 43 c43 24 155 88 248
144 954 568 1545 1033 1879 1475 394 522 519 1100 350 1610 -167 501 -543 903
-1279 1362 -152 95 -183 110 -126 61z"/>
<path d="M5450 6790 c-11 -11 -20 -28 -20 -38 0 -10 45 -94 100 -186 133 -223
133 -223 115 -230 -9 -3 -12 0 -8 10 6 17 -10 18 -38 3 -11 -6 -19 -18 -17
-28 2 -13 -22 -37 -78 -80 -247 -186 -426 -510 -446 -806 l-3 -50 245 -8 c380
-11 2167 -4 2180 9 16 16 -14 203 -50 310 -75 220 -205 408 -380 547 -41 33
-74 64 -73 68 2 5 -3 6 -10 4 -6 -3 -23 4 -36 14 l-25 19 118 196 c126 210
134 234 81 258 -48 22 -69 5 -146 -120 -68 -109 -167 -263 -173 -270 -2 -1
-57 13 -123 32 -66 19 -148 38 -181 42 -34 3 -62 11 -62 16 0 5 5 6 10 3 6 -3
10 -1 10 4 0 6 -19 10 -42 10 -40 -1 -41 -2 -13 -9 19 -5 -11 -8 -87 -9 -179
-2 -360 -33 -480 -84 l-37 -16 -117 191 c-64 104 -123 196 -131 204 -21 20
-60 17 -83 -6z m357 -893 c17 -16 27 -40 30 -71 5 -42 3 -48 -30 -81 -27 -27
-43 -35 -72 -35 -71 0 -114 41 -115 109 0 36 6 49 35 78 33 33 39 35 81 30 31
-3 55 -13 71 -30z m1093 18 c32 -17 60 -61 60 -95 0 -60 -58 -110 -126 -110
-48 0 -104 53 -104 100 0 91 90 147 170 105z"/>
<path d="M6100 6510 c-12 -8 -11 -10 5 -9 11 1 31 5 45 9 24 8 24 8 -5 9 -16
0 -37 -4 -45 -9z"/>
<path d="M5977 6488 c-8 -5 -5 -8 8 -8 11 0 27 5 35 10 12 7 10 9 -8 7 -13 -1
-28 -5 -35 -9z"/>
<path d="M6550 6490 c0 -11 50 -19 56 -9 3 5 2 10 -3 10 -34 6 -53 5 -53 -1z"/>
<path d="M6776 6444 c-9 -9 -14 -19 -11 -22 3 -3 13 2 22 11 9 9 14 19 11 22
-3 3 -13 -2 -22 -11z"/>
<path d="M7385 5056 c-16 -13 -28 -26 -25 -29 3 -3 21 8 40 24 41 35 28 39
-15 5z"/>
<path d="M5021 3830 c0 -36 2 -41 10 -27 7 12 7 27 0 45 -9 25 -9 24 -10 -18z"/>
<path d="M5045 3730 c-13 -6 -15 -9 -5 -9 8 0 22 4 30 9 18 12 2 12 -25 0z"/>
<path d="M4410 3295 c-14 -7 -29 -11 -35 -8 -5 2 -2 -2 8 -11 21 -17 43 -12
51 11 9 22 5 23 -24 8z"/>
<path d="M4313 3293 c9 -2 23 -2 30 0 6 3 -1 5 -18 5 -16 0 -22 -2 -12 -5z"/>
<path d="M4180 3209 c-63 -38 -173 -104 -243 -146 -175 -104 -186 -131 -109
-252 174 -274 318 -489 336 -503 12 -10 38 -18 62 -18 36 0 74 19 275 140 129
78 242 150 252 162 35 41 23 70 -106 266 -67 103 -153 235 -191 293 -66 105
-93 129 -139 129 -12 0 -74 -32 -137 -71z m20 -173 c0 -8 -28 -31 -62 -52 -35
-21 -64 -38 -66 -39 -7 -5 11 -35 22 -35 6 0 40 18 75 41 49 31 66 37 72 27 5
-7 9 -15 9 -18 0 -3 -61 -40 -135 -82 l-135 -77 -25 37 c-14 20 -25 44 -25 54
0 11 41 41 118 87 117 71 152 84 152 57z m-20 -221 c15 -18 8 -40 -19 -55 -17
-9 -23 -6 -38 16 -16 25 -16 27 2 40 24 18 40 18 55 -1z m92 -140 c8 -19 8
-28 -2 -40 -18 -21 -36 -19 -55 8 -15 21 -14 23 6 40 28 23 37 22 51 -8z m181
-74 c-11 -9 -41 -28 -67 -43 -43 -26 -62 -58 -33 -58 6 0 41 18 76 40 63 38
81 42 81 16 0 -15 -228 -156 -251 -156 -22 0 -65 69 -53 86 5 8 63 48 129 89
103 63 121 72 129 58 6 -12 3 -21 -11 -32z"/>
<path d="M5815 2745 c-58 -12 -59 -12 -19 -14 23 0 57 6 75 14 41 17 25 17
-56 0z"/>
<path d="M5495 2692 c-49 -8 -84 -17 -77 -20 13 -4 202 28 202 34 0 6 -27 3
-125 -14z"/>
<path d="M5363 2663 c9 -2 23 -2 30 0 6 3 -1 5 -18 5 -16 0 -22 -2 -12 -5z"/>
</g>
</svg>
